M48
;Layer_Color=9474304
;FILE_FORMAT=4:4
METRIC,LZ
;TYPE=PLATED
T01F00S00C0.3500
T02F00S00C0.7620
T03F00S00C0.8000
T04F00S00C0.8000
T05F00S00C0.8890
T06F00S00C1.1000
T07F00S00C1.4000
T08F00S00C3.2000
;TYPE=NON_PLATED
T09F00S00C1.3000
%
T01
X00755Y0023
X007575Y002425
Y002525
X0077Y00225
X007775Y002175
X00825
X00885
X009275Y002625
X01024326Y00154326
X01051876Y001525
X0106Y00155
X010725Y00245
X010875
X011325Y0026
X01387329Y00264179
X01389064Y002725
X01386Y002485
X01387868Y0023744
X01385Y00225
Y00215
X01385Y00156564
X0142Y001525
X01414781Y00124479
X014375Y00125
X014575
Y001525
X014525Y00195
Y002525
X01482522Y002165
X01483696Y00186304
X01480947Y0017416
X01473162Y0018016
X0152Y001875
X01531194Y00179524
X01539322Y00198496
X01556289Y001975
X01565992Y00169794
X01545Y00165
X015475Y001375
X01565992Y00121026
X015675Y00105
X015325Y001025
X014975
X0149725Y00122
X01515957Y00120957
X01511636Y00159634
X01527384Y00209926
X01523574Y00238374
X015225Y002575
X01522558Y00273426
X01512Y002645
X015725Y002675
X0155Y00235
X01596218Y002235
X015925Y001725
X01600028Y0014795
X01617808Y0013017
X015975Y00095
X01598Y000345
X0165Y000275
X016725Y001375
X016925
X017125
X01751001Y000975
X0175989Y0017
X01751412Y0020256
X01761362Y00213482
Y00256154
X0177605Y00245994
X017875Y002725
X01807292Y00271394
X01810086Y00223642
Y0018732
X01797894Y00134996
X01810086Y000725
Y000345
X01677244Y00186304
X01715Y0024
Y002725
X016525Y0027
X0164Y0026
X01634318Y00246248
X016325Y002875
X016Y003275
X01596218Y003535
X0158Y00375
X01615Y003875
X01640414Y00412872
X01650574Y0043624
Y00481926
X016675Y005
X01600536Y004525
X01752936Y00468752
X017525Y0038
X017275
Y00355
Y0033
X01731696Y0031
X0175954Y00302079
X017525Y0033
Y00355
X01535Y003125
X015525Y0029
X01515Y0028
X014875Y002975
X015Y003325
X0147Y0066
X01615Y0061
X018225Y006275
Y005625
X01435Y00625
X014525Y006425
X0134Y00458002
X011525Y004675
X0114Y00475
X011275Y004775
X0109Y004375
Y00395
Y00355
X01125Y003625
X011225Y003425
X011275Y003225
X011225Y002825
X0109Y0028
X013875Y00280855
X01389914Y00296794
X0141791Y00306446
X014275Y0032
X014475Y00326
X01444072Y0029781
X009275Y003125
X009525Y00405
X009375Y004575
X009125Y00495
X0087Y004325
X00825Y003725
X0075Y0028
X007425Y004975
X005925Y00495
Y0054
X00595Y0061
X006075
X0062
X00533Y00563
X004625Y00565
Y005275
Y006025
Y0064
X005125Y006375
Y006475
X0052Y004675
X005325Y0046
X00565Y00445
X00505Y004325
X004525Y004375
X0046Y003425
X0057
X00625Y003175
X006725Y003725
X006325Y004325
X003475Y003175
X001125Y002825
X00113Y00388
X000775Y003825
X00138Y00406
X002325Y006715
X00305Y00725
X00315Y007575
X003425Y007475
X004625Y007175
Y006775
X00528571Y00695
X005825Y0073
Y00745
Y0076
X0059Y0084
X006025
X00615
X00508Y00867
X005075Y00875
X00523571Y00925
X0057Y00995
X0057Y01005
X0058
Y01015
X0057
X008
X0081
Y01005
X008
Y00995
X00753571Y00925
X0074Y00875
Y00866
X0082Y0084
X008325
X00845
X0104025Y007975
X010725Y0083
X0108375Y0082375
X01245Y00785
X012575
X0127
X012825
X01295
X013021Y008554
X01432016Y00807016
X01432984Y00677984
X01507016
X01615Y00675
Y0074
Y0081
X015075Y008075
X0182Y008225
X018225Y007575
Y006925
T02
X01111Y00925
X01158
X01205
T03
X01115Y0005
X01135
X01155
X01175
X01195
X01215
X01235
X01255
X01275
Y001
X01255
X01235
X01215
X01195
X01175
X01155
X01135
X01115
X01105Y002025
Y002225
Y002425
Y002625
X01155
Y002425
Y002225
Y002025
X0125
Y002225
Y002425
Y002625
X013
Y002425
Y002225
Y002025
Y002825
Y003025
Y003225
Y003425
Y003625
Y003825
X0125
Y003625
Y003425
Y003225
Y003025
Y002825
X01155
Y003025
Y003225
Y003425
Y003625
Y003825
X01105
Y003625
Y003425
Y003225
Y003025
Y002825
X01171Y004625
Y004825
Y005025
X01246
Y004825
Y004625
X01321
X01321Y004825
Y005025
X0141Y005125
Y005325
Y004925
Y004725
Y004525
Y004325
Y004125
Y003925
Y003725
X0146
Y003925
Y004125
Y004325
Y004525
Y004725
Y004925
Y005125
Y005325
X00295Y00331
X00275
X00255
X00235
X00215
X00195
X00209Y0044
Y0046
Y0048
X00134
Y0046
Y0044
X00051Y0043
Y0045
Y0047
Y0049
Y00365
Y00345
Y00325
Y00305
X013385Y007725
Y007925
Y008125
T04
X013625Y00005
Y000175
Y0003
Y000425
Y00055
Y000675
Y0008
Y000925
Y00105
Y001175
Y0013
Y001425
Y00155
Y001675
Y0018
Y001925
Y00205
Y002175
Y0023
Y002425
Y00255
Y002675
X01634Y002235
Y001975
Y001715
Y000985
Y000725
Y000465
X01776
Y000725
Y000985
Y001715
Y001975
Y002235
Y003015
Y003275
Y003535
Y004265
Y004525
Y004785
X01634
Y004525
Y004265
Y003535
Y003275
Y003015
X013625Y00305
Y002925
Y0028
Y003175
Y0033
Y003425
Y00355
Y003675
Y0038
Y003925
Y00405
Y004175
Y0043
Y004425
Y00455
Y004675
Y0048
Y004925
Y00505
Y005175
Y0053
Y005425
Y00555
Y005675
Y0058
Y005925
Y00605
Y006175
Y0063
Y006425
Y00655
Y006675
Y0068
Y006925
Y00705
Y007175
Y0073
Y007425
Y00755
Y007675
Y0078
Y007925
Y00805
Y008175
Y0083
Y008425
Y00855
X013625Y008675
T05
X0007Y0002
X0009
X0011
X0013
X0015
X0017
X0019
X0021
X0023
X0025
Y0024
X0023
X0021
X0019
X0017
X0015
X0013
X0011
X0009
X0007
T06
X00365Y00026
Y000514
X003904
Y000768
X00365
Y001022
X003904
Y001276
Y00153
X00365
Y001784
Y002038
X003904
Y002292
Y002546
X00365
Y002292
X003904Y001784
X00365Y001276
X003904Y00026
X009746
Y000514
Y000768
X01
Y001022
Y001276
Y00153
X009746
Y001784
Y002038
Y002292
X01
Y002038
Y001784
X009746Y001276
Y001022
X01Y000514
Y00026
Y002546
X009746
X010904Y00575
X011158
X011412
X011666
X01192
X012174
X012428
X012682
X012936
X01319
X013444
X01065
X01Y005848
Y006102
X009746
Y005848
Y005594
X01
Y00534
X009746
Y005086
X01
Y004832
Y004578
Y004324
Y00407
Y003816
Y003562
Y003308
X009746
Y003054
Y0028
X01
Y003054
X009746Y003562
Y003816
Y00407
Y004324
Y004578
Y004832
Y006356
Y00661
X01
Y006356
X003904
X00365
Y00661
X003904
Y006102
X00365
Y005848
Y005594
Y00534
Y005086
Y004832
X003904
Y005086
Y00534
Y005594
Y005848
Y004578
Y004324
Y00407
Y003816
Y003562
Y003308
X00365
Y003562
Y003816
Y00407
Y004324
Y004578
Y003054
Y0028
X003904
Y003054
X002844Y0067446
X000304
Y0069986
Y0072526
Y0075066
Y0077606
Y0080146
Y0082686
Y0085226
Y0087766
Y0090306
X002844
Y0087766
Y0085226
Y0082686
Y0080146
Y0077606
Y0075066
Y0072526
Y0069986
X00365Y007118
Y007372
Y007626
Y00788
Y008134
Y008388
Y008642
Y008896
X003904
Y00915
X00365
X003904Y008642
Y008388
Y008134
Y00788
Y007626
Y007372
Y007118
Y006864
X00365
X009746
Y007118
X01
Y007372
Y007626
Y00788
Y008134
Y008388
Y008642
Y008896
Y00915
X009746
Y008896
Y008642
Y008388
Y008134
Y00788
Y007626
Y007372
X01Y006864
X01065001Y007274
X01090401
X01115801
X01141201
X01166601
X01192001
X01217401
X01242801
X01268201
X01293601
X01319001
X01344401
T07
X01155Y01
X012058
X01275Y0096
Y009092
T08
X002825Y001175
X009
X01545Y000425
X012875Y0065
X001
X00425Y009875
X009Y007475
X01545Y008325
T09
X01095Y00117
X01088Y001825
X01233
X01477Y003525
M30
