M48
;Layer_Color=9474304
;FILE_FORMAT=2:5
INCH,TZ
;TYPE=PLATED
T01F00S00C0.01378
T02F00S00C0.03000
T03F00S00C0.03150
T04F00S00C0.03150
T05F00S00C0.03500
T06F00S00C0.04331
T07F00S00C0.05512
T08F00S00C0.12598
;TYPE=NON_PLATED
T09F00S00C0.05118
%
T01
X21654Y108268
X104808Y99916
X122047Y100787
X298228Y99410
Y95472
X297244Y90551
X303150Y88583
X306102Y85630
X324803
X348425
X365158Y103347
X403278Y60758
X414124Y60039
X417323Y61024
X422244Y96457
X428150
X445866Y102362
X546192Y104007
X546876Y107283
X545669Y97835
X546405Y93480
X545276Y88583
Y84646
X545276Y61639
X559055Y60039
X557000Y49007
X565945Y49213
X573819
Y60039
X571850Y76772
Y99410
X583670Y85236
X584132Y73348
X583050Y68567
X579985Y70929
X598425Y73819
X602832Y70679
X606032Y78148
X612712Y77756
X616532Y66848
X608268Y64961
X609252Y54134
X616532Y47648
X617126Y41339
X603346Y40354
X589567
X589468Y48032
X596833Y47621
X595132Y62848
X601332Y82648
X599832Y93848
X599409Y101378
X599432Y107648
X595276Y104134
X619095Y105315
X610236Y92520
X628432Y87992
X626968Y67913
X629932Y58248
X636932Y51248
X628937Y37402
X629134Y13583
X649606Y10827
X658465Y54134
X666339
X674213
X689370Y38386
X692870Y66929
X689532Y79748
X693450Y84048
Y100848
X699232Y96848
X703740Y107283
X711532Y106848
X712632Y88048
Y73748
X707832Y53148
X712632Y28543
Y13583
X660332Y73348
X675197Y94488
Y107283
X650591Y106299
X645669Y102362
X643432Y96948
X642717Y113189
X629921Y128937
X628432Y139173
X622047Y147638
X635827Y152559
X645832Y162548
X649832Y171748
Y189735
X656496Y196850
X630132Y178150
X690132Y184548
X689961Y149606
X680118
Y139764
Y129921
X681770Y122047
X692732Y118929
X689961Y129921
Y139764
X604331Y123031
X611221Y114173
X596457Y110236
X585630Y117126
X590551Y130905
X578740Y259842
X635827Y240157
X717520Y247047
Y221457
X564961Y246063
X571850Y252953
X527559Y180316
X453740Y184055
X448819Y187008
X443898Y187992
X429134Y172244
Y155512
Y139764
X442913Y142717
X441929Y134843
X443898Y126969
X441929Y111221
X429134Y110236
X546260Y110573
X547210Y116848
X558232Y120648
X562008Y125984
X569882Y128347
X568532Y117248
X365158Y123031
X347638Y109843
X295276Y110236
X324803Y146653
X342520Y170276
X369094Y180118
X359252Y194882
X375000Y159449
X292323Y195866
X233268Y194882
Y212598
X234252Y240158
X239173
X244094
X209842Y221654
X182087Y222441
Y207677
X174016Y191732
X178150Y172244
X198819Y170276
X204724Y184055
X209646Y181102
X222441Y175197
X249016Y170276
X264764Y146653
X246063Y125000
X224410Y134843
X181102
X136811Y125000
X135039Y179528
X182087Y237205
Y251969
X201772Y250984
Y254921
X91535Y264370
X54331Y159843
X120079Y285433
X124016Y298228
X134843Y294291
X182087Y282480
Y266732
X208099Y273622
X229331Y287402
Y293307
Y299213
X232283Y330709
X237205
X242126
X200000Y341339
X199803Y344488
X206130Y364173
X224409Y391732
X224410Y395669
X228346
Y399606
X224410
X314961
X318898
Y395669
X314961
Y391732
X296681Y364173
X291339Y344488
Y340945
X322835Y330709
X327756
X332677
X409547Y313976
X422244Y326772
X426673Y324311
X490158Y309055
X495079
X500000
X504921
X509842
X512638Y336772
X563786Y317723
X564167Y266923
X593314
X635827Y265748
Y291339
Y318898
X593504Y317913
X716535Y323819
X717520Y298228
Y272638
T02
X437402Y364173
X455905
X474409
T03
X438976Y19685
X446850
X454724
X462598
X470472
X478346
X486220
X494094
X501968
Y39370
X494094
X486220
X478346
X470472
X462598
X454724
X446850
X438976
X435039Y79724
Y87598
Y95472
Y103346
X454724
Y95472
Y87598
Y79724
X492126
Y87598
Y95472
Y103346
X511811
Y95472
Y87598
Y79724
Y111220
Y119094
Y126968
Y134842
Y142717
Y150591
X492126
Y142717
Y134842
Y126968
Y119094
Y111220
X454724
Y119094
Y126968
Y134842
Y142717
Y150591
X435039
Y142717
Y134842
Y126968
Y119094
Y111220
X461024Y182087
Y189961
Y197835
X490551
Y189961
Y182087
X520079
X520079Y189961
Y197835
X555118Y201772
Y209646
Y193898
Y186024
Y178150
Y170276
Y162402
Y154528
Y146654
X574803
Y154528
Y162402
Y170276
Y178150
Y186024
Y193898
Y201772
Y209646
X116142Y130315
X108268
X100394
X92520
X84646
X76772
X82283Y173228
Y181102
Y188976
X52756
Y181102
Y173228
X20079Y169291
Y177165
Y185039
Y192913
Y143701
Y135827
Y127953
Y120079
X526968Y304134
Y312008
Y319882
T04
X536417Y1969
Y6890
Y11811
Y16732
Y21654
Y26575
Y31496
Y36417
Y41339
Y46260
Y51181
Y56102
Y61024
Y65945
Y70866
Y75787
Y80709
Y85630
Y90551
Y95472
Y100394
Y105315
X643307Y87992
Y77756
Y67520
Y38780
Y28543
Y18307
X699213
Y28543
Y38780
Y67520
Y77756
Y87992
Y118701
Y128937
Y139173
Y167913
Y178150
Y188386
X643307
Y178150
Y167913
Y139173
Y128937
Y118701
X536417Y120079
Y115157
Y110236
Y125000
Y129921
Y134843
Y139764
Y144685
Y149606
Y154527
Y159449
Y164370
Y169291
Y174213
Y179134
Y184055
Y188976
Y193898
Y198819
Y203740
Y208661
Y213583
Y218504
Y223425
Y228346
Y233268
Y238189
Y243110
Y248031
Y252953
Y257874
Y262795
Y267717
Y272638
Y277559
Y282480
Y287402
Y292323
Y297244
Y302165
Y307087
Y312008
Y316929
Y321850
Y326772
Y331693
Y336614
X536417Y341535
T05
X27559Y7874
X35433
X43307
X51181
X59055
X66929
X74803
X82677
X90551
X98425
Y94488
X90551
X82677
X74803
X66929
X59055
X51181
X43307
X35433
X27559
T06
X143701Y10236
Y20236
X153701
Y30236
X143701
Y40236
X153701
Y50236
Y60236
X143701
Y70236
Y80236
X153701
Y90236
Y100236
X143701
Y90236
X153701Y70236
X143701Y50236
X153701Y10236
X383701
Y20236
Y30236
X393701
Y40236
Y50236
Y60236
X383701
Y70236
Y80236
Y90236
X393701
Y80236
Y70236
X383701Y50236
Y40236
X393701Y20236
Y10236
Y100236
X383701
X429291Y226378
X439291
X449291
X459291
X469291
X479291
X489291
X499291
X509291
X519291
X529291
X419291
X393701Y230236
Y240236
X383701
Y230236
Y220236
X393701
Y210236
X383701
Y200236
X393701
Y190236
Y180236
Y170236
Y160236
Y150236
Y140236
Y130236
X383701
Y120236
Y110236
X393701
Y120236
X383701Y140236
Y150236
Y160236
Y170236
Y180236
Y190236
Y250236
Y260236
X393701
Y250236
X153701
X143701
Y260236
X153701
Y240236
X143701
Y230236
Y220236
Y210236
Y200236
Y190236
X153701
Y200236
Y210236
Y220236
Y230236
Y180236
Y170236
Y160236
Y150236
Y140236
Y130236
X143701
Y140236
Y150236
Y160236
Y170236
Y180236
Y120236
Y110236
X153701
Y120236
X111968Y265535
X11968
Y275535
Y285535
Y295535
Y305535
Y315535
Y325535
Y335535
Y345535
Y355535
X111968
Y345535
Y335535
Y325535
Y315535
Y305535
Y295535
Y285535
Y275535
X143701Y280236
Y290236
Y300236
Y310236
Y320236
Y330236
Y340236
Y350236
X153701
Y360236
X143701
X153701Y340236
Y330236
Y320236
Y310236
Y300236
Y290236
Y280236
Y270236
X143701
X383701
Y280236
X393701
Y290236
Y300236
Y310236
Y320236
Y330236
Y340236
Y350236
Y360236
X383701
Y350236
Y340236
Y330236
Y320236
Y310236
Y300236
Y290236
X393701Y270236
X419292Y286378
X429292
X439292
X449292
X459292
X469292
X479292
X489292
X499292
X509292
X519292
X529292
T07
X454724Y393701
X474724
X501968Y377953
Y357953
T08
X111221Y46260
X354331
X608268Y16732
X506890Y255906
X39370
X167323Y388779
X354331Y294291
X608268Y327756
T09
X431102Y46063
X428346Y71850
X485433
X581496Y138779
M30
